<mxfile host="app.diagrams.net"><diagram name="parallel"><mxGraphModel><root><mxCell id="0" /><mxCell id="1" parent="0" /><mxCell id="p0" value="STHDF&#10;Property" style="rounded=1;whiteSpace=wrap;html=1;" vertex="1" parent="1"><mxGeometry x="100" y="20" width="120" height="60" as="geometry" /></mxCell><mxCell id="s0" value="STHDF&#10;Stream" style="rounded=1;whiteSpace=wrap;html=1;" vertex="1" parent="1"><mxGeometry x="100" y="120" width="120" height="60" as="geometry" /></mxCell><mxCell id="g0" value="STHDF&#10;GTM Container" style="rounded=1;whiteSpace=wrap;html=1;" vertex="1" parent="1"><mxGeometry x="100" y="220" width="120" height="60" as="geometry" /></mxCell><mxCell id="p1" value="KNIFE&#10;Property" style="rounded=1;whiteSpace=wrap;html=1;" vertex="1" parent="1"><mxGeometry x="300" y="20" width="120" height="60" as="geometry" /></mxCell><mxCell id="s1" value="KNIFE&#10;Stream" style="rounded=1;whiteSpace=wrap;html=1;" vertex="1" parent="1"><mxGeometry x="300" y="120" width="120" height="60" as="geometry" /></mxCell><mxCell id="g1" value="KNIFE&#10;GTM Container" style="rounded=1;whiteSpace=wrap;html=1;" vertex="1" parent="1"><mxGeometry x="300" y="220" width="120" height="60" as="geometry" /></mxCell><mxCell id="p2" value="LetItGrow&#10;Property" style="rounded=1;whiteSpace=wrap;html=1;" vertex="1" parent="1"><mxGeometry x="500" y="20" width="120" height="60" as="geometry" /></mxCell><mxCell id="s2" value="LetItGrow&#10;Stream" style="rounded=1;whiteSpace=wrap;html=1;" vertex="1" parent="1"><mxGeometry x="500" y="120" width="120" height="60" as="geometry" /></mxCell><mxCell id="g2" value="LetItGrow&#10;GTM Container" style="rounded=1;whiteSpace=wrap;html=1;" vertex="1" parent="1"><mxGeometry x="500" y="220" width="120" height="60" as="geometry" /></mxCell><mxCell id="p3" value="LookAndRepeat&#10;Property" style="rounded=1;whiteSpace=wrap;html=1;" vertex="1" parent="1"><mxGeometry x="700" y="20" width="120" height="60" as="geometry" /></mxCell><mxCell id="s3" value="LookAndRepeat&#10;Stream" style="rounded=1;whiteSpace=wrap;html=1;" vertex="1" parent="1"><mxGeometry x="700" y="120" width="120" height="60" as="geometry" /></mxCell><mxCell id="g3" value="LookAndRepeat&#10;GTM Container" style="rounded=1;whiteSpace=wrap;html=1;" vertex="1" parent="1"><mxGeometry x="700" y="220" width="120" height="60" as="geometry" /></mxCell></root></mxGraphModel></diagram></mxfile>